<svg width="32" height="32" viewBox="0 0 32 32" fill="none" xmlns="http://www.w3.org/2000/svg">
  <!-- Ardie Circuit Brain Favicon - Dark lines with red nodes -->
  <!-- Main brain structure paths -->
  <path d="M16 4 L16 8 L12 10" stroke="#1a1a1a" stroke-width="1.5" fill="none" stroke-linecap="round"/>
  <path d="M16 8 L20 10" stroke="#1a1a1a" stroke-width="1.5" fill="none" stroke-linecap="round"/>
  <path d="M12 10 L8 12 L6 16" stroke="#1a1a1a" stroke-width="1.5" fill="none" stroke-linecap="round"/>
  <path d="M20 10 L24 12 L26 16" stroke="#1a1a1a" stroke-width="1.5" fill="none" stroke-linecap="round"/>
  <path d="M12 10 L10 14 L8 18" stroke="#1a1a1a" stroke-width="1.5" fill="none" stroke-linecap="round"/>
  <path d="M20 10 L22 14 L24 18" stroke="#1a1a1a" stroke-width="1.5" fill="none" stroke-linecap="round"/>
  <path d="M6 16 L4 20" stroke="#1a1a1a" stroke-width="1.5" fill="none" stroke-linecap="round"/>
  <path d="M26 16 L28 20" stroke="#1a1a1a" stroke-width="1.5" fill="none" stroke-linecap="round"/>
  <path d="M8 18 L6 22 L8 26" stroke="#1a1a1a" stroke-width="1.5" fill="none" stroke-linecap="round"/>
  <path d="M24 18 L26 22 L24 26" stroke="#1a1a1a" stroke-width="1.5" fill="none" stroke-linecap="round"/>
  <!-- Stem -->
  <path d="M16 16 L16 22 L14 26 L12 30" stroke="#1a1a1a" stroke-width="1.5" fill="none" stroke-linecap="round"/>
  <path d="M16 22 L18 26 L20 30" stroke="#1a1a1a" stroke-width="1.5" fill="none" stroke-linecap="round"/>
  <!-- Cross connections -->
  <path d="M10 14 L14 16 L18 14" stroke="#1a1a1a" stroke-width="1.5" fill="none" stroke-linecap="round"/>
  <path d="M14 16 L16 16 L18 14 L22 14" stroke="#1a1a1a" stroke-width="1.5" fill="none" stroke-linecap="round"/>
  <!-- Red circuit nodes -->
  <circle cx="16" cy="4" r="2" fill="#E53935"/>
  <circle cx="16" cy="8" r="1.5" fill="#E53935"/>
  <circle cx="12" cy="10" r="1.5" fill="#E53935"/>
  <circle cx="20" cy="10" r="1.5" fill="#E53935"/>
  <circle cx="8" cy="12" r="1.5" fill="#E53935"/>
  <circle cx="24" cy="12" r="1.5" fill="#E53935"/>
  <circle cx="6" cy="16" r="1.5" fill="#E53935"/>
  <circle cx="26" cy="16" r="1.5" fill="#E53935"/>
  <circle cx="10" cy="14" r="1.5" fill="#E53935"/>
  <circle cx="22" cy="14" r="1.5" fill="#E53935"/>
  <circle cx="14" cy="16" r="1.5" fill="#E53935"/>
  <circle cx="18" cy="14" r="1.5" fill="#E53935"/>
  <circle cx="8" cy="18" r="1.5" fill="#E53935"/>
  <circle cx="24" cy="18" r="1.5" fill="#E53935"/>
  <circle cx="4" cy="20" r="1.5" fill="#E53935"/>
  <circle cx="28" cy="20" r="1.5" fill="#E53935"/>
  <circle cx="6" cy="22" r="1.5" fill="#E53935"/>
  <circle cx="26" cy="22" r="1.5" fill="#E53935"/>
  <circle cx="16" cy="16" r="1.5" fill="#E53935"/>
  <circle cx="16" cy="22" r="1.5" fill="#E53935"/>
  <circle cx="8" cy="26" r="1.5" fill="#E53935"/>
  <circle cx="24" cy="26" r="1.5" fill="#E53935"/>
  <circle cx="14" cy="26" r="1.5" fill="#E53935"/>
  <circle cx="18" cy="26" r="1.5" fill="#E53935"/>
  <circle cx="12" cy="30" r="1.5" fill="#E53935"/>
  <circle cx="20" cy="30" r="1.5" fill="#E53935"/>
</svg>
