<svg width="32" height="32" viewBox="0 0 32 32" fill="none" xmlns="http://www.w3.org/2000/svg">
  <!-- Simplified circuit brain icon -->
  <circle cx="16" cy="8" r="2" fill="#0F172A"/>
  <circle cx="12" cy="12" r="1.5" fill="#0F172A"/>
  <circle cx="20" cy="12" r="1.5" fill="#0F172A"/>
  <circle cx="8" cy="16" r="1.5" fill="#0F172A"/>
  <circle cx="24" cy="16" r="1.5" fill="#0F172A"/>
  <circle cx="10" cy="20" r="1.5" fill="#0F172A"/>
  <circle cx="22" cy="20" r="1.5" fill="#0F172A"/>
  <circle cx="16" cy="16" r="2" fill="#0F172A"/>
  <circle cx="14" cy="24" r="1.5" fill="#0F172A"/>
  <circle cx="18" cy="24" r="1.5" fill="#0F172A"/>
  <circle cx="16" cy="28" r="2" fill="#0F172A"/>
  <path d="M16 8 L16 16" stroke="#0F172A" stroke-width="1.5"/>
  <path d="M16 8 L12 12" stroke="#0F172A" stroke-width="1.5"/>
  <path d="M16 8 L20 12" stroke="#0F172A" stroke-width="1.5"/>
  <path d="M12 12 L8 16" stroke="#0F172A" stroke-width="1.5"/>
  <path d="M20 12 L24 16" stroke="#0F172A" stroke-width="1.5"/>
  <path d="M8 16 L10 20" stroke="#0F172A" stroke-width="1.5"/>
  <path d="M24 16 L22 20" stroke="#0F172A" stroke-width="1.5"/>
  <path d="M16 16 L10 20" stroke="#0F172A" stroke-width="1.5"/>
  <path d="M16 16 L22 20" stroke="#0F172A" stroke-width="1.5"/>
  <path d="M10 20 L14 24" stroke="#0F172A" stroke-width="1.5"/>
  <path d="M22 20 L18 24" stroke="#0F172A" stroke-width="1.5"/>
  <path d="M14 24 L16 28" stroke="#0F172A" stroke-width="1.5"/>
  <path d="M18 24 L16 28" stroke="#0F172A" stroke-width="1.5"/>
</svg>
