<svg xmlns="http://www.w3.org/2000/svg" viewBox="0 0 480 200">
  <!-- Circuit Brain -->
  <g transform="translate(20, 10) scale(0.35)">
    <!-- Main brain circuit paths -->
    <path d="M200 50 L200 80 L180 100 L180 130" stroke="#0F172A" stroke-width="4" fill="none"/>
    <path d="M200 80 L220 100 L220 150" stroke="#0F172A" stroke-width="4" fill="none"/>
    <path d="M180 100 L160 100 L140 120 L140 160" stroke="#0F172A" stroke-width="4" fill="none"/>
    <path d="M220 100 L250 100 L270 120 L270 180" stroke="#0F172A" stroke-width="4" fill="none"/>
    <path d="M140 120 L120 120 L100 140 L100 200" stroke="#0F172A" stroke-width="4" fill="none"/>
    <path d="M270 120 L290 120 L310 140 L310 220" stroke="#0F172A" stroke-width="4" fill="none"/>
    <path d="M180 130 L160 150 L160 200" stroke="#0F172A" stroke-width="4" fill="none"/>
    <path d="M220 150 L240 170 L240 220" stroke="#0F172A" stroke-width="4" fill="none"/>
    <path d="M100 140 L80 140 L60 160 L60 240" stroke="#0F172A" stroke-width="4" fill="none"/>
    <path d="M310 140 L330 140 L350 160 L350 260" stroke="#0F172A" stroke-width="4" fill="none"/>
    <path d="M160 150 L140 170 L140 240" stroke="#0F172A" stroke-width="4" fill="none"/>
    <path d="M240 170 L260 190 L260 260" stroke="#0F172A" stroke-width="4" fill="none"/>
    <path d="M60 160 L40 180 L40 280" stroke="#0F172A" stroke-width="4" fill="none"/>
    <path d="M350 160 L370 180 L370 300" stroke="#0F172A" stroke-width="4" fill="none"/>
    <path d="M140 170 L120 190 L120 280" stroke="#0F172A" stroke-width="4" fill="none"/>
    <path d="M260 190 L280 210 L280 300" stroke="#0F172A" stroke-width="4" fill="none"/>
    <!-- Stem -->
    <path d="M200 280 L200 380 L180 400 L180 450" stroke="#0F172A" stroke-width="4" fill="none"/>
    <path d="M200 380 L220 400 L220 450" stroke="#0F172A" stroke-width="4" fill="none"/>
    <path d="M180 400 L160 420 L160 480" stroke="#0F172A" stroke-width="4" fill="none"/>
    <path d="M220 400 L240 420 L240 480" stroke="#0F172A" stroke-width="4" fill="none"/>
    <!-- Circuit nodes -->
    <circle cx="200" cy="50" r="8" fill="#0F172A"/>
    <circle cx="200" cy="80" r="6" fill="#0F172A"/>
    <circle cx="180" cy="100" r="6" fill="#0F172A"/>
    <circle cx="220" cy="100" r="6" fill="#0F172A"/>
    <circle cx="160" cy="100" r="6" fill="#0F172A"/>
    <circle cx="250" cy="100" r="6" fill="#0F172A"/>
    <circle cx="140" cy="120" r="6" fill="#0F172A"/>
    <circle cx="270" cy="120" r="6" fill="#0F172A"/>
    <circle cx="120" cy="120" r="6" fill="#0F172A"/>
    <circle cx="290" cy="120" r="6" fill="#0F172A"/>
    <circle cx="100" cy="140" r="6" fill="#0F172A"/>
    <circle cx="310" cy="140" r="6" fill="#0F172A"/>
    <circle cx="80" cy="140" r="6" fill="#0F172A"/>
    <circle cx="330" cy="140" r="6" fill="#0F172A"/>
    <circle cx="180" cy="130" r="6" fill="#0F172A"/>
    <circle cx="220" cy="150" r="6" fill="#0F172A"/>
    <circle cx="160" cy="150" r="6" fill="#0F172A"/>
    <circle cx="240" cy="170" r="6" fill="#0F172A"/>
    <circle cx="60" cy="160" r="6" fill="#0F172A"/>
    <circle cx="350" cy="160" r="6" fill="#0F172A"/>
    <circle cx="140" cy="170" r="6" fill="#0F172A"/>
    <circle cx="260" cy="190" r="6" fill="#0F172A"/>
    <circle cx="40" cy="180" r="6" fill="#0F172A"/>
    <circle cx="370" cy="180" r="6" fill="#0F172A"/>
    <circle cx="120" cy="190" r="6" fill="#0F172A"/>
    <circle cx="280" cy="210" r="6" fill="#0F172A"/>
    <circle cx="160" cy="200" r="8" fill="#0F172A"/>
    <circle cx="140" cy="160" r="8" fill="#0F172A"/>
    <circle cx="100" cy="200" r="8" fill="#0F172A"/>
    <circle cx="270" cy="180" r="8" fill="#0F172A"/>
    <circle cx="310" cy="220" r="8" fill="#0F172A"/>
    <circle cx="60" cy="240" r="8" fill="#0F172A"/>
    <circle cx="350" cy="260" r="8" fill="#0F172A"/>
    <circle cx="140" cy="240" r="8" fill="#0F172A"/>
    <circle cx="260" cy="260" r="8" fill="#0F172A"/>
    <circle cx="40" cy="280" r="8" fill="#0F172A"/>
    <circle cx="370" cy="300" r="8" fill="#0F172A"/>
    <circle cx="120" cy="280" r="8" fill="#0F172A"/>
    <circle cx="280" cy="300" r="8" fill="#0F172A"/>
    <circle cx="200" cy="280" r="8" fill="#0F172A"/>
    <circle cx="200" cy="380" r="6" fill="#0F172A"/>
    <circle cx="180" cy="400" r="6" fill="#0F172A"/>
    <circle cx="220" cy="400" r="6" fill="#0F172A"/>
    <circle cx="160" cy="420" r="6" fill="#0F172A"/>
    <circle cx="240" cy="420" r="6" fill="#0F172A"/>
    <circle cx="180" cy="450" r="8" fill="#0F172A"/>
    <circle cx="220" cy="450" r="8" fill="#0F172A"/>
    <circle cx="160" cy="480" r="8" fill="#0F172A"/>
    <circle cx="240" cy="480" r="8" fill="#0F172A"/>
  </g>
  <!-- ARDIE Text -->
  <text x="175" y="130" font-family="Arial, sans-serif" font-size="72" font-weight="400" fill="#0F172A" letter-spacing="2">ARDIE</text>
</svg>
