<svg xmlns="http://www.w3.org/2000/svg" viewBox="0 0 280 80">
  <!-- Ardie Circuit Brain Logo - Light mode (dark lines, red nodes) -->
  <g transform="translate(5, 5) scale(0.14)">
    <!-- Main brain circuit paths -->
    <path d="M200 50 L200 80 L180 100 L180 130" stroke="#1a1a1a" stroke-width="6" fill="none" stroke-linecap="round"/>
    <path d="M200 80 L220 100 L220 150" stroke="#1a1a1a" stroke-width="6" fill="none" stroke-linecap="round"/>
    <path d="M180 100 L160 100 L140 120 L140 160" stroke="#1a1a1a" stroke-width="6" fill="none" stroke-linecap="round"/>
    <path d="M220 100 L250 100 L270 120 L270 180" stroke="#1a1a1a" stroke-width="6" fill="none" stroke-linecap="round"/>
    <path d="M140 120 L120 120 L100 140 L100 200" stroke="#1a1a1a" stroke-width="6" fill="none" stroke-linecap="round"/>
    <path d="M270 120 L290 120 L310 140 L310 220" stroke="#1a1a1a" stroke-width="6" fill="none" stroke-linecap="round"/>
    <path d="M180 130 L160 150 L160 200" stroke="#1a1a1a" stroke-width="6" fill="none" stroke-linecap="round"/>
    <path d="M220 150 L240 170 L240 220" stroke="#1a1a1a" stroke-width="6" fill="none" stroke-linecap="round"/>
    <path d="M100 140 L80 140 L60 160 L60 240" stroke="#1a1a1a" stroke-width="6" fill="none" stroke-linecap="round"/>
    <path d="M310 140 L330 140 L350 160 L350 260" stroke="#1a1a1a" stroke-width="6" fill="none" stroke-linecap="round"/>
    <path d="M160 150 L140 170 L140 240" stroke="#1a1a1a" stroke-width="6" fill="none" stroke-linecap="round"/>
    <path d="M240 170 L260 190 L260 260" stroke="#1a1a1a" stroke-width="6" fill="none" stroke-linecap="round"/>
    <path d="M60 160 L40 180 L40 280" stroke="#1a1a1a" stroke-width="6" fill="none" stroke-linecap="round"/>
    <path d="M350 160 L370 180 L370 300" stroke="#1a1a1a" stroke-width="6" fill="none" stroke-linecap="round"/>
    <path d="M140 170 L120 190 L120 280" stroke="#1a1a1a" stroke-width="6" fill="none" stroke-linecap="round"/>
    <path d="M260 190 L280 210 L280 300" stroke="#1a1a1a" stroke-width="6" fill="none" stroke-linecap="round"/>
    <!-- Stem -->
    <path d="M200 280 L200 380 L180 400 L180 450" stroke="#1a1a1a" stroke-width="6" fill="none" stroke-linecap="round"/>
    <path d="M200 380 L220 400 L220 450" stroke="#1a1a1a" stroke-width="6" fill="none" stroke-linecap="round"/>
    <path d="M180 400 L160 420 L160 480" stroke="#1a1a1a" stroke-width="6" fill="none" stroke-linecap="round"/>
    <path d="M220 400 L240 420 L240 480" stroke="#1a1a1a" stroke-width="6" fill="none" stroke-linecap="round"/>
    <!-- Red circuit nodes -->
    <circle cx="200" cy="50" r="12" fill="#E53935"/>
    <circle cx="200" cy="80" r="10" fill="#E53935"/>
    <circle cx="180" cy="100" r="10" fill="#E53935"/>
    <circle cx="220" cy="100" r="10" fill="#E53935"/>
    <circle cx="160" cy="100" r="10" fill="#E53935"/>
    <circle cx="250" cy="100" r="10" fill="#E53935"/>
    <circle cx="140" cy="120" r="10" fill="#E53935"/>
    <circle cx="270" cy="120" r="10" fill="#E53935"/>
    <circle cx="120" cy="120" r="10" fill="#E53935"/>
    <circle cx="290" cy="120" r="10" fill="#E53935"/>
    <circle cx="100" cy="140" r="10" fill="#E53935"/>
    <circle cx="310" cy="140" r="10" fill="#E53935"/>
    <circle cx="80" cy="140" r="10" fill="#E53935"/>
    <circle cx="330" cy="140" r="10" fill="#E53935"/>
    <circle cx="180" cy="130" r="10" fill="#E53935"/>
    <circle cx="220" cy="150" r="10" fill="#E53935"/>
    <circle cx="160" cy="150" r="10" fill="#E53935"/>
    <circle cx="240" cy="170" r="10" fill="#E53935"/>
    <circle cx="60" cy="160" r="10" fill="#E53935"/>
    <circle cx="350" cy="160" r="10" fill="#E53935"/>
    <circle cx="140" cy="170" r="10" fill="#E53935"/>
    <circle cx="260" cy="190" r="10" fill="#E53935"/>
    <circle cx="40" cy="180" r="10" fill="#E53935"/>
    <circle cx="370" cy="180" r="10" fill="#E53935"/>
    <circle cx="120" cy="190" r="10" fill="#E53935"/>
    <circle cx="280" cy="210" r="10" fill="#E53935"/>
    <circle cx="160" cy="200" r="12" fill="#E53935"/>
    <circle cx="140" cy="160" r="12" fill="#E53935"/>
    <circle cx="100" cy="200" r="12" fill="#E53935"/>
    <circle cx="270" cy="180" r="12" fill="#E53935"/>
    <circle cx="310" cy="220" r="12" fill="#E53935"/>
    <circle cx="60" cy="240" r="12" fill="#E53935"/>
    <circle cx="350" cy="260" r="12" fill="#E53935"/>
    <circle cx="140" cy="240" r="12" fill="#E53935"/>
    <circle cx="260" cy="260" r="12" fill="#E53935"/>
    <circle cx="40" cy="280" r="12" fill="#E53935"/>
    <circle cx="370" cy="300" r="12" fill="#E53935"/>
    <circle cx="120" cy="280" r="12" fill="#E53935"/>
    <circle cx="280" cy="300" r="12" fill="#E53935"/>
    <circle cx="200" cy="280" r="12" fill="#E53935"/>
    <circle cx="200" cy="380" r="10" fill="#E53935"/>
    <circle cx="180" cy="400" r="10" fill="#E53935"/>
    <circle cx="220" cy="400" r="10" fill="#E53935"/>
    <circle cx="160" cy="420" r="10" fill="#E53935"/>
    <circle cx="240" cy="420" r="10" fill="#E53935"/>
    <circle cx="180" cy="450" r="12" fill="#E53935"/>
    <circle cx="220" cy="450" r="12" fill="#E53935"/>
    <circle cx="160" cy="480" r="12" fill="#E53935"/>
    <circle cx="240" cy="480" r="12" fill="#E53935"/>
  </g>
  <!-- ARDIE Text -->
  <text x="78" y="52" font-family="Arial, sans-serif" font-size="36" font-weight="400" fill="#1a1a1a" letter-spacing="1">ARDIE</text>
</svg>
